<svg xmlns="http://www.w3.org/2000/svg">
<defs>
<font id="megapixel" horiz-adv-x="208" >
  <font-face 
    font-family="megapixel"
    font-weight="400"
    font-stretch="normal"
    units-per-em="720"
    panose-1="2 11 6 3 5 3 2 2 2 4"
    ascent="576"
    descent="-144"
    x-height="652"
    cap-height="652"
    bbox="0 28 973 652"
    underline-thickness="0"
    underline-position="0"
    unicode-range="U+0020-007A"
  />
<missing-glyph horiz-adv-x="720" 
d="M568 188v-45q-11 0 -18.5 1t-16.5 7q-17 12 -17 37h-44.5h-44.5v-17v-19v-8h-7l-19 3q-19 4 -24 26q-15 -16 -36.5 -22.5t-41.5 -6.5h-58q-37 1 -38 39v1.5v2.5h-66h-55v-5q-2 -33 -35 -38l-17 -1v44h-19.5h-10.5q0 91 15 135.5t47 111.5q18 37 60 89.5t89 85.5
q45 32 111 31.5t112 -34.5q52 -40 51 -104q0 -31 -22.5 -69t-68.5 -42q-30 -1 -37.5 13t-10.5 27q21 -14 47 -3t22 49q-3 16 -16 34t-28 25q-50 23 -95 -4q-29 -24 -49 -57.5t-15 -69.5q-4 -39 28.5 -65t68.5 -35q17 -6 56 1t82.5 19t83 24t57.5 16q8 1 18 5t17 4h0.5t0.5 1
v-1q20 0 32 -8q13 -12 15 -30v-51h71l-1 -6q7 5 18 5h130q-1 -12 -2.5 -21.5t-10.5 -18.5l-3 -3l-2 -1q27 0 39 -23q8 -27 0 -49q-11 -24 -35 -24h-90q-34 0 -38 34l-1 13q-11 2 -17.5 12t-6.5 20v3v12q-12 -7 -26 -6.5t-25 0.5v-35q0 -2 4 -2h41q-1 -12 -2.5 -21.5
t-10.5 -18.5q-10 -10 -21.5 -10.5t-24.5 -0.5q-16 0 -27 11.5t-11 27.5v5h-25h-26zM43 304v-37v-37v-36.5v-36.5q11 0 18 7t7 18v48q0 16 14 16h101q11 0 18 8q8 6 8 18h-13.5h-16.5h-20.5h-20.5h-21h-19h-18h-12v23v10q0 12 18 21q16 10 40 10h23h24h21h15q0 8 -8 18
q-9 7 -18 7h-57q-33 0 -59 -18q-24 -16 -24 -39zM242 157h57q32 -2 59 17q24 16 24 40v31q0 11 -8 19q-7 8 -18 8h-57q-32 0 -59 -17q-24 -18 -24 -41v-31q0 -11 7 -19q8 -7 19 -7zM242 217l-1 -1q1 13 18 22q16 8 40 8h39q8 0 13 -5t5 -10v-18q0 -13 -18 -22q-20 -9 -39 -9
h-40q-8 0 -13 5q-5 3 -5 10zM415 157h-1v18.5v18.5v18.5v18.5q0 5 5 10q3 5 13 5h39q20 0 40 -9q18 -10 18 -21v-34q0 -8 8 -18q7 -7 18 -7v17.5v10.5v10.5v18.5h-1h1q0 23 -25 41q-28 17 -59 17h-57q-11 0 -18 -9q-7 -7 -7 -18v-31v-32q0 -11 7 -18t19 -7zM658 246v-1h9.5

<glyph glyph-name=".notdef" horiz-adv-x="720" 
d="M568 188v-45q-11 0 -18.5 1t-16.5 7q-17 12 -17 37h-44.5h-44.5v-17v-19v-8h-7l-19 3q-19 4 -24 26q-15 -16 -36.5 -22.5t-41.5 -6.5h-58q-37 1 -38 39v1.5v2.5h-66h-55v-5q-2 -33 -35 -38l-17 -1v44h-19.5h-10.5q0 91 15 135.5t47 111.5q18 37 60 89.5t89 85.5
q45 32 111 31.5t112 -34.5q52 -40 51 -104q0 -31 -22.5 -69t-68.5 -42q-30 -1 -37.5 13t-10.5 27q21 -14 47 -3t22 49q-3 16 -16 34t-28 25q-50 23 -95 -4q-29 -24 -49 -57.5t-15 -69.5q-4 -39 28.5 -65t68.5 -35q17 -6 56 1t82.5 19t83 24t57.5 16q8 1 18 5t17 4h0.5t0.5 1
v-1q20 0 32 -8q13 -12 15 -30v-51h71l-1 -6q7 5 18 5h130q-1 -12 -2.5 -21.5t-10.5 -18.5l-3 -3l-2 -1q27 0 39 -23q8 -27 0 -49q-11 -24 -35 -24h-90q-34 0 -38 34l-1 13q-11 2 -17.5 12t-6.5 20v3v12q-12 -7 -26 -6.5t-25 0.5v-35q0 -2 4 -2h41q-1 -12 -2.5 -21.5
t-10.5 -18.5q-10 -10 -21.5 -10.5t-24.5 -0.5q-16 0 -27 11.5t-11 27.5v5h-25h-26zM43 304v-37v-37v-36.5v-36.5q11 0 18 7t7 18v48q0 16 14 16h101q11 0 18 8q8 6 8 18h-13.5h-16.5h-20.5h-20.5h-21h-19h-18h-12v23v10q0 12 18 21q16 10 40 10h23h24h21h15q0 8 -8 18
q-9 7 -18 7h-57q-33 0 -59 -18q-24 -16 -24 -39zM242 157h57q32 -2 59 17q24 16 24 40v31q0 11 -8 19q-7 8 -18 8h-57q-32 0 -59 -17q-24 -18 -24 -41v-31q0 -11 7 -19q8 -7 19 -7zM242 217l-1 -1q1 13 18 22q16 8 40 8h39q8 0 13 -5t5 -10v-18q0 -13 -18 -22q-20 -9 -39 -9
h-40q-8 0 -13 5q-5 3 -5 10zM415 157h-1v18.5v18.5v18.5v18.5q0 5 5 10q3 5 13 5h39q20 0 40 -9q18 -10 18 -21v-34q0 -8 8 -18q7 -7 18 -7v17.5v10.5v10.5v18.5h-1h1q0 23 -25 41q-28 17 -59 17h-57q-11 0 -18 -9q-7 -7 -7 -18v-31v-32q0 -11 7 -18t19 -7zM658 246v-1h9.5
h11.5h10.5h11.5q9 0 19 8q8 10 8 19h-18.5h-17.5h-18h-16v64q0 8 -8 18q-9 7 -18 7v-20v-25v-26v-18h-18h-18h-17.5h-16.5q0 -11 8 -19t17 -8h10.5h11.5h11h12v-19v-12v-13v-18q0 -11 8 -19q7 -7 18 -7h4h5h4h5q11 0 18 7q8 8 8 18h-7.5h-6.5h-6.5h-6.5q-17 0 -17 14
q-1 8 -0.5 15t0.5 11v9v15zM760 182v0q0 -11 7 -18t18 -7h22.5h22.5h21.5h23.5q9 0 18 7q7 8 7 19v19v0q0 8 -8 18q-9 7 -17 7h-30h-29h-28.5h-27.5v4q0 6 5 10q4 4 12 4h40h32q10 0 18 8q8 10 8 18h-21.5h-20.5h-20.5h-20.5h-32q-12 0 -18 -8q-7 -6 -7 -18v-18q0 -13 7 -18
q5 -7 18 -7h27.5h29.5h28.5h29.5v-5q0 -5 -6 -11q-4 -4 -12 -4h-24.5h-24.5h-24h-24zM0 85h973v-57h-973v57z" />
    <glyph glyph-name="glyph1" horiz-adv-x="0" 
 />
    <glyph glyph-name="glyph2" horiz-adv-x="720" 
 />
    <glyph glyph-name="space" unicode=" " 
 />
    <glyph glyph-name="exclam" unicode="!" horiz-adv-x="104" 
d="M0 652h57v-397h-57v397zM0 198h57v-56h-57v56zM0 85h113v-57h-113v57z" />
    <glyph glyph-name="quotedbl" unicode="&#x22;" 
d="M170 652v-113h-57v113h57zM0 85h227v-57h-227v57zM57 652v-113h-57v113h57z" />
    <glyph glyph-name="numbersign" unicode="#" horiz-adv-x="312" 
d="M0 85h340v-57h-340v57zM57 482v57h-57v56h57v57h56v-57h57v57h57v-57h56v-56h-56v-57h56v-57h-56v-57h-57v57h-57v-57h-56v57h-57v57h57zM170 482v57h-57v-57h57zM0 312h57v-170h-57v170zM113 312h57v-57h-57v57zM170 255h57v-57h-57v57zM170 198v-56h-57v56h57zM283 312
h57v-170h-57v170z" />
    <glyph glyph-name="quotesingle" unicode="'" horiz-adv-x="104" 
d="M0 85h113v-57h-113v57zM57 652v-113h-57v113h57z" />
    <glyph glyph-name="comma" unicode="," horiz-adv-x="104" 
d="M0 85h113v-57h-113v57zM57 142h-57v56h57v-56z" />
    <glyph glyph-name="period" unicode="." horiz-adv-x="104" 
d="M57 425h56v-397v0v0h-113v57h57v340z" />
    <glyph glyph-name="zero" unicode="0" 
d="M0 652h170v-284h-170v284zM57 595v-170h56v170h-56zM0 312h57v-57h-57v57zM57 255h56v-57h-56v57zM0 85h227v-57h-227v57zM170 198v114h57v-114v0v-56v0v0h-57v0h-57v56h57z" />
    <glyph glyph-name="one" unicode="1" horiz-adv-x="104" 
d="M0 652h57v-284h-57v284zM0 85h113v-57h-113v57zM113 198v-56h-113v56h113zM113 312v-57h-56v57h56z" />
    <glyph glyph-name="two" unicode="2" 
d="M113 539v56h-113v57h170v-57v0v-113v0v0h-113v57h56zM0 482h57v-57h113v-57h-170v57v0v57zM0 312h57v-57h-57v57zM113 312h57v-114h-57v114zM227 198v-56h-57v56h57zM57 198v-56h-57v56h57zM0 85h227v-57h-227v57z" />
    <glyph glyph-name="three" unicode="3" 
d="M0 85h227v-57h-227v57zM0 652h113v-57h-113v57zM113 595h57v-56h-57v56zM113 539v-57h-56v57h56zM113 482h57v-57h-57v57zM113 425v-57h-113v57h113zM0 312h57v-57h-57v57zM57 255h56v-113h-56v113zM227 312v-57h-114v57h114zM170 198h57v-56h-57v56z" />
    <glyph glyph-name="four" unicode="4" 
d="M0 85h227v-57h-227v57zM57 652v-113h56v113h57v-113v0v-57v0v-114h-57v114h-56v0h-57v170h57zM0 312h113v-57h-113v57zM0 198h113v-56h-113v56zM113 255h114v-57h-114v57z" />
    <glyph glyph-name="five" unicode="5" 
d="M0 85h227v-57h-227v57zM57 652v0h113v-57h-113v-56h-57v56v0v57v0v0h57zM57 539h56v-57h-56v57zM113 482h57v-57h-57v57zM113 425v-57h-113v57h113zM113 312h57v-57h-57v57zM170 255h57v-57h-57v57zM170 198v-56h-57v56h57zM57 312v-170h-57v170h57z" />
    <glyph glyph-name="six" unicode="6" 
d="M57 482v-57h56v57h-56zM0 652h57v-113h113v-171h-170v171v0v113zM0 312h57v-57h-57v57zM113 312h57v-114h-57v114zM0 198h113v-56h-113v56zM170 198h57v-56h-57v56zM227 85v-57h-227v57h227z" />
    <glyph glyph-name="seven" unicode="7" 
d="M170 652v-284h-57v227h-113v57h113v0h57zM0 312h113v-57h-113v57zM170 198h-57v57h114v-57v0v-56h-57v56zM57 198v-56h-57v56h57zM0 85h227v-57h-227v57z" />
    <glyph glyph-name="eight" unicode="8" 
d="M0 652h170v-284h-170v284zM57 595v-56h56v56h-56zM57 425h56v57h-56v-57zM0 85h227v-57h-227v57zM227 255v-113h-57v113h57zM113 312v0h57v-57h-57v-57h-56v57v0v57v0v0h56zM57 198v-56h-57v56h57z" />
    <glyph glyph-name="nine" unicode="9" 
d="M113 595h-56v-56h56v56zM170 539v0v-171h-57v114h-113v170h170v-113zM57 312h56v-57h-56v57zM113 255v-57h57v57h-57zM170 198h57v-56h-57v56zM57 198h56v-56h-56v0h-57v113h57v-57zM0 85h227v-57h-227v57z" />
    <glyph glyph-name="A" unicode="A" 
d="M113 482v98q-2 11 -15 15h-26q-12 -4 -15 -15v-35v-63h56zM170 104q0 -16 16 -19h41v-57h-87v1h-8q-19 0 -19 19v377h-56v-163v-120h-57v98.5v138v128v69.5q4 16 15 19l28 1q10 1 14 13v14v14q2 10 19 15h18q16 -3 20 -14v-28q3 -11 14 -14l28 -1q12 -4 14 -19v-236.5
v-235.5zM57 85v-57h-57v57h57z" />
    <glyph glyph-name="B" unicode="B" 
d="M57 595v-57v-56h41q11 3 15 15v41.5v41.5q-2 13 -15 15h-21h-20zM57 199h27v0h14q13 1 15 15v98v98q-4 13 -15 15h-21.5h-19.5v-113.5v-112.5zM114 468q0 -8 -0.5 -15t-0.5 -13q3 -12 14 -15l16 1v-1h12q10 -2 15 -19v-22v0v-166q-5 -18 -14 -19l-28 -1q-12 -4 -15 -14
v-28q-2 -12 -19 -14h-94v217v217v0.5v0.5v75h46.5h47.5q17 -3 19 -14v-15v-13q3 -11 15 -14l28 -1q9 -2 14 -19v-37v-38q-3 -16 -14 -19h-12v0h-16q-13 -4 -14 -14zM0 85h227v-57h-227v57z" />
    <glyph glyph-name="C" unicode="C" 
d="M170 199v-57h-94q-17 4 -19 15v13v14q-4 12 -14 14l-28 1q-13 1 -15 19v71.5v107v107.5v72q2 17 15 19l27 1q11 1 15 14v13v14q2 10 19 15h94v-57h-98q-14 -4 -15 -15v-74.5v-109v-109v-73.5q1 -12 15 -15h98zM0 85h227v-57h-227v57z" />
    <glyph glyph-name="D" unicode="D" 
d="M57 199h28v0h13q12 1 16 15v268h-1v98q-2 13 -15 15h-11v0h-30v-198v-198zM0 142v217v217v0.5v0.5v75h46.5h47.5q17 -3 19 -14v-15v-13q3 -11 15 -14l28 -1q11 -2 14 -19v-75v0v-283q-3 -18 -14 -19l-28 -1q-11 -4 -14 -14v-28q-4 -12 -20 -14h-94zM0 85h227v-57h-227v57
z" />
    <glyph glyph-name="E" unicode="E" 
d="M170 199v-57h-170v217v217v0.5v0.5v75h32.5h52h52h33.5v-57h-19.5h-38h-37.5h-18v-57v-56h113v-57h-19.5h-38h-37.5h-18v-113.5v-112.5h113zM0 85h227v-57h-227v57z" />
    <glyph glyph-name="F" unicode="F" 
d="M57 142h-57v217v217v0.5v0.5v75h32.5h52h52h33.5v-57h-19.5h-38h-37.5h-18v-57v-56h113v-57h-19.5h-38h-37.5h-18v-142v-141zM0 85h227v-57h-227v57z" />
    <glyph glyph-name="G" unicode="G" horiz-adv-x="260" 
d="M227 142h-76h-75q-17 4 -19 15v13v14q-4 12 -14 14l-28 1q-13 1 -15 19v71.5v107v107.5v72q2 17 15 19l27 1q11 1 15 14v13v14q2 10 19 15h75q15 -2 19 -14v-15v-13q2 -11 14 -14l28 -1q10 -2 15 -19v-23q-4 -13 -16 -14h-24q-16 1 -17 16v25q-2 13 -15 15h-83
q-14 -4 -15 -15v-74.5v-109v-109v-73.5q1 -12 15 -15h83q13 1 15 15v211h-57v57h114v-170.5v-169.5zM0 85h283v-57h-283v57z" />
    <glyph glyph-name="H" unicode="H" 
d="M170 104q0 -16 16 -19h41v-57h-87v1h-8q-19 0 -19 19v94v0v283h-56v-283h-38v0v0v0q-19 0 -19 19v491h57v-170h56v170h39v0v0q14 0 18 -15v-267.5v-265.5zM57 85v-57h-57v57h57z" />
    <glyph glyph-name="I" unicode="I" horiz-adv-x="104" 
d="M57 633v-15q0 -16 -16 -19q16 -4 16 -19v-438h-57v438q0 15 15 19q-15 3 -15 19v18q1 12 15 16h28q14 -4 14 -19zM0 85h113v-57h-113v57z" />
    <glyph glyph-name="J" unicode="J" 
d="M170 312v-57v-37q-3 -18 -14 -19l-28 -1q-12 -2 -15 -13v-15v-13q-3 -11 -19 -15h-94v57h98q13 3 15 15v39v59v0v227v0v38q0 16 -15 18h-41v57h87v0h7q19 0 19 -19v-161v-160zM0 85h227v-57h-227v57z" />
    <glyph glyph-name="K" unicode="K" 
d="M170 104q0 -16 16 -19h41v-57h-87v1h-8q-19 0 -19 19v94v0v268q-4 13 -15 15h-21.5h-19.5v-142v-141h-57v254.5v255.5h28h29v-85v-85h41q11 3 15 15v28v49v49v29h57v-151q-3 -16 -14 -19h-12v0h-16q-13 -4 -14 -14q0 -8 -0.5 -15t-0.5 -13q3 -12 14 -15l16 1v-1h12
q12 -2 15 -19v-302zM0 85h57v-57h-57v57z" />
    <glyph glyph-name="L" unicode="L" 
d="M0 652h57v-397v0v-38q0 -16 15 -19h98v-56h-143v0h-8q-19 0 -19 19v101v144v144.5v101.5zM0 85h227v-57h-227v57z" />
    <glyph glyph-name="M" unicode="M" horiz-adv-x="312" 
d="M284 104q0 -16 15 -19h41v-56h-94q-19 0 -19 19v532q-2 13 -15 15h-26q-14 -4 -15 -15l-1 -438h-56v438q-4 13 -16 15h-26q-12 -4 -15 -15v-71v-129v-139v-99h-57v98.5v138v128v69.5q4 17 15 19l28 1q10 1 14 14v13v14q2 10 19 15h18q16 -3 20 -14v-28q3 -11 14 -14h28
q11 1 15 14q-1 6 -0.5 13t0.5 14q1 10 19 15h18q15 -3 19 -14v-28q3 -11 14 -14l28 -1q10 -2 15 -19v-236.5v-235.5zM0 85h170v-57h-170v57z" />
    <glyph glyph-name="N" unicode="N" 
d="M170 104q0 -16 16 -19h41v-57h-87v1h-8q-19 0 -19 19v265.5v266.5q-2 11 -15 15h-14v0h-27v-227v-226h-57v92.5v124v124.5v93v0.5v0.5v75h46.5h47.5q17 -3 19 -14v-15v-13q3 -11 15 -14l28 -1q12 -4 14 -19v-75v0v-198.5v-198.5zM57 85v-57h-57v57h57z" />
    <glyph glyph-name="O" unicode="O" 
d="M114 214v268h-1v98q-2 13 -15 15h-26q-14 -4 -15 -15v-74.5v-109v-109v-73.5q1 -12 15 -15h26q12 1 16 15zM0 218v71.5v107v107.5v72q2 17 15 19l27 1q11 1 15 14v13v14q2 10 19 15h18q17 -3 19 -14v-15v-13q3 -11 15 -14l28 -1q11 -2 14 -19v-75v0v-283q-3 -18 -14 -19
l-28 -1q-11 -4 -14 -14v-28q-4 -12 -20 -14h-18q-17 4 -19 15v13v14q-4 12 -14 14l-28 1q-13 1 -15 19zM0 85h227v-57h-227v57z" />
    <glyph glyph-name="P" unicode="P" 
d="M57 595v-57v-56h41q11 3 15 15v41.5v41.5q-2 13 -15 15h-21h-20zM113 442q-2 -16 -18 -16q-9 0 -19 -0.5t-19 -0.5v-113.5v-112.5v0v-57h-57v217v217v0.5v0.5v75h46.5h47.5q17 -3 19 -14v-15v-13q3 -11 15 -14l28 -1q9 -2 14 -19v-37v-38q-3 -16 -14 -19h-12v0h-16
q-13 -4 -14 -14q0 -7 -0.5 -13.5t-0.5 -12.5zM0 85h227v-57h-227v57z" />
    <glyph glyph-name="Q" unicode="Q" 
d="M57 85v-57h-57v57h57zM114 214v268h-1v98q-2 13 -15 15h-26q-14 -4 -15 -15v-74.5v-109v-109v-73.5q1 -12 15 -15h26q12 1 16 15zM170 104q0 -19 19 -19h18.5h19.5v-57h-72h-1v0h-24q-16 1 -17 17v81q-2 12 -15 16h-11h-11q-17 4 -19 15v13v14q-4 12 -14 14l-28 1
q-13 1 -15 19v71.5v107v107.5v72q2 17 15 19l27 1q11 1 15 14v13v14q2 10 19 15h18q17 -3 19 -14v-15v-13q3 -11 15 -14l28 -1q11 -2 14 -19v-75v0v-283q-3 -18 -14 -19l-28 -1q-11 -4 -14 -14q0 -19 -1 -28q3 -11 15 -14h28q11 -4 14 -19v-10v-9z" />
    <glyph glyph-name="R" unicode="R" 
d="M113 48v362q-2 13 -15 15h-41v-283h-57v453v1v56h151q19 0 19 -19v-136q-4 -15 -19 -15h-23q-11 -4 -14 -13v-29q1 -11 14 -14h16v-1h12q12 -2 14 -15v-306q0 -16 15 -19h42v-57h-87v1h-8q-19 0 -19 19zM113 497v82q-2 14 -15 16h-41v-113h40q12 1 16 15zM0 85h57v-57
h-57v57z" />
    <glyph glyph-name="S" unicode="S" 
d="M113 214v98v0v98q-4 13 -15 15h-22q-17 4 -19 15v28q-3 10 -14 14h-16v0h-12q-13 3 -15 19v80q1 12 15 14l27 1q11 1 15 14v16v0v11q3 13 19 15h94v-57h-98q-14 -4 -15 -15v-83q-5 0 3.5 -7.5t11.5 -7.5h8v0h14q17 -3 19 -15l1 -28q1 -11 14 -14h28q12 -4 14 -19v-94.5
v-93.5q-3 -18 -14 -19l-28 -1q-12 -2 -15 -13v-17v0v-11q-4 -14 -19 -15h-94v57h98q13 3 15 15zM0 85h227v-57h-227v57z" />
    <glyph glyph-name="T" unicode="T" 
d="M113 595v-453h-56v453h-57v57h170v-57h-57zM0 85h227v-57h-227v57z" />
    <glyph glyph-name="U" unicode="U" 
d="M113 198l1 454h56v-510h-47.5h-46.5q-17 4 -19 15v13v14q-4 12 -14 14l-28 1q-11 1 -15 19v68.5v128v138v99.5h57v-100v-139v-129v-70q3 -12 15 -15h15v-1h26zM0 85h227v-57h-227v57z" />
    <glyph glyph-name="V" unicode="V" 
d="M114 652h56v-378q-3 -16 -14 -19h-28q-11 -3 -14 -14v-85q-4 -12 -20 -14h-18q-17 4 -19 15v41.5v42.5q-4 10 -14 14h-28q-13 3 -15 19v60v113.5v121v83.5h57v-85v-122v-114v-60q1 -13 15 -16h26q12 3 16 15v382zM0 85h227v-57h-227v57z" />
    <glyph glyph-name="W" unicode="W" horiz-adv-x="312" 
d="M171 214q1 -12 15 -15h26q13 1 15 15v438h57v-434q-5 -18 -15 -19l-28 -1q-11 -4 -14 -14v-28q-4 -12 -19 -14h-18q-18 4 -19 15q0 6 -0.5 13t0.5 14q-4 12 -15 14h-28q-11 -4 -14 -14v-28q-4 -12 -20 -14h-18q-17 4 -19 15v13v14q-4 12 -14 14l-28 1q-11 1 -15 19v68.5
v128v138v99.5h57v-100v-139v-129v-70q3 -12 15 -15h26q12 1 16 15v438h57v-438zM0 85h340v-57h-340v57z" />
    <glyph glyph-name="X" unicode="X" 
d="M57 652v-97v-57q3 -14 15 -15l27 -1q11 3 15 16v154h56v-151q-3 -16 -14 -19h-28q-11 -3 -14 -14v-28q0 -12 14 -14l28 -1q12 -4 14 -19v-151.5v-150.5q0 -16 16 -19h41v-57h-87v1h-8q-19 0 -19 19v180.5v181.5q-2 11 -15 15h-26q-12 -4 -15 -15v-115v-153h-57v151.5
v112.5q4 16 15 19h28q10 2 14 14q0 7 0 6t0 6v0.5v0.5v7.5v8.5q-4 10 -14 14h-28q-11 2 -15 19v56v95h57zM57 85v-57h-57v57h57z" />
    <glyph glyph-name="Y" unicode="Y" 
d="M57 142v326q-4 10 -14 14h-28q-11 2 -15 19v56v95h57v-97v-57q3 -13 15 -16h26q12 3 16 15v155h56v-151q-3 -16 -14 -19h-28q-11 -3 -14 -14q0 -82 -0.5 -163.5t-0.5 -162.5h-28h-28zM0 85h227v-57h-227v57z" />
    <glyph glyph-name="Z" unicode="Z" 
d="M0 142v160.5v160.5q2 15 15 19h28q11 3 13 14l1 28q2 10 19 15h14v0h8q3 0 11.5 7.5t3.5 7.5v26q-2 11 -15 15h-98v57h170v-47.5v-46.5q-3 -16 -15 -19h-11v0h-17q-12 -4 -13 -14l-1 -28q-2 -11 -19 -15h-22q-12 -2 -15 -15v-253q1 -12 15 -15h98v-57h-85h-85zM0 85h227
v-57h-227v57z" />
    <glyph glyph-name="bracketleft" unicode="[" horiz-adv-x="156" 
d="M57 652h56v-57h-56v-510h56v-57h-113v0v0v624h57v0z" />
    <glyph glyph-name="bracketright" unicode="]" horiz-adv-x="156" 
d="M57 652v0h56v-624v0v0h-113v57h57v510h-57v57h57z" />
    <glyph glyph-name="underscore" unicode="_" 
d="M0 85h227v-57h-227v57z" />
    <glyph glyph-name="a" unicode="a" 
d="M113 425v57h-56v-57h56zM170 368h-85.5h-84.5v85v86h113v56h-113v57h170v-16v0v-134v-134zM0 312h57v-57h-57v57zM113 312h57v-57h-57v57zM57 199v56h56v-56v0v-57v0v0h-56v0h-57v57h57zM0 85h227v-57h-227v57zM170 198h57v-56h-57v56z" />
    <glyph glyph-name="b" unicode="b" 
d="M0 85h227v-57h-227v57zM113 482h-56v-57h56v57zM0 652h57v-113h113v-171h-170v171v0v113zM0 312h57v-57h-57v57zM170 312h57v-57h-57v57zM170 255v-113v0v0h-170v56h113v57h57z" />
    <glyph glyph-name="c" unicode="c" 
d="M0 85h227v-57h-227v57zM0 425v170v0v57h170v-57h-113v-170h113v-57h-170v57v0zM113 198h-56v57v0v57v0v0h56v0h57v-57h-57v-57zM0 198h57v-56h-57v56zM113 198h57v-56h-57v56zM170 255h57v-57h-57v57z" />
    <glyph glyph-name="d" unicode="d" 
d="M0 85h227v-57h-227v57zM57 482v-57h56v57h-56zM113 539v113h57v-142v-142h-170v171h113zM227 312v-114h-57v114h57zM57 255v-57h56v-56h-113v56v0v57h57zM113 312v-57h-56v57h56z" />
    <glyph glyph-name="e" unicode="e" 
d="M57 595v-56h56v56h-56zM57 425h113v-57h-85.5h-84.5v142v142h170v-170h-113v-57zM0 85h227v-57h-227v57zM113 255h114v-57v0v-56h-57v56h-57v57zM113 312v-57h-113v57h113zM57 198v-56h-57v56h57z" />
    <glyph glyph-name="f" unicode="f" 
d="M0 85h227v-57h-227v57zM57 255v-57.5v-55.5h113v56h-57v57h-56zM170 255h57v-57h-57v57zM113 312h57v-57h-57v57zM0 312h57v-57h-57v57zM57 539h113v-57h-113v-114h-57v284h31v0h139v-57h-113v-56z" />
    <glyph glyph-name="g" unicode="g" 
d="M0 85h227v-57h-227v57zM170 539v0v-170h-42v-1h-128v57h113v57h-113v170h170v-113zM57 595v-56h56v56h-56zM0 312h57v-114h-57v114zM170 198v57h57v-57v0v-56v0v0h-57v0h-57v56h57zM170 312v-57h-57v57h57z" />
    <glyph glyph-name="h" unicode="h" 
d="M170 482v-114h-57v114h-56v-114h-57v284h57v-113h113v-57v0zM0 85h227v-57h-227v57zM227 198v-56h-114v56h114zM170 312v-57h-57v-57v0v0h-113v57h57v57v0v0h113z" />
    <glyph glyph-name="i" unicode="i" horiz-adv-x="104" 
d="M0 652h57v-57h-57v57zM0 539h57v-171h-57v171zM0 85h113v-57h-113v57zM0 198h57v-56h-57v56zM113 312v-114h-56v114h56z" />
    <glyph glyph-name="j" unicode="j" 
d="M113 425v170h-56v57h113v-29v0v-255h-29v0h-141v57h113zM0 85h227v-57h-227v57zM227 198v-56h-57v56h57zM57 198h-57v-56h57v56zM57 198v57v0h-57v57h113v-57v0v0h57v-57h-113z" />
    <glyph glyph-name="k" unicode="k" 
d="M0 652h57v-284h-57v284zM57 539h56v-57h-56v57zM113 539v113h57v-113h-57zM113 482h57v-114h-57v114zM0 85h227v-57h-227v57zM227 142h-57v56h57v-56zM113 312h114v-57h-114v57zM113 255v-113h-56v56h-57v57h57v0h56z" />
    <glyph glyph-name="l" unicode="l" 
d="M57 425h113v-57h-85.5h-84.5v284h57v-227zM0 85h227v-57h-227v57zM227 198v-56h-114v56h114zM57 255v-113h-57v113h57zM227 312v-57h-114v57h114z" />
    <glyph glyph-name="m" unicode="m" horiz-adv-x="312" 
d="M0 652h113v-57h-56v-227h-57v284v0v0zM113 595h57v-227h-57v227zM170 652h57v-57h-57v57zM227 595h56v-227h-56v227zM0 85h340v-57h-340v57zM227 198v-56h-57v56h57zM57 255h-57v-57v0v-56h113v56h-56v57zM57 312h113v-57h-113v57zM283 312v-57h-56v57h56zM283 255h57
v-113h-57v113z" />
    <glyph glyph-name="n" unicode="n" 
d="M113 652v-57h-56v-227h-57v284h56.5h56.5zM113 595h57v-227h-57v227zM0 85h227v-57h-227v57zM227 142h-114v56h114v-56zM170 312v-57h-57v-57h-56v57h-57v57h170z" />
    <glyph glyph-name="o" unicode="o" 
d="M0 595h57v-170h-57v170zM57 652h56v-57h-56v57zM113 595h57v-170h-57v170zM57 425h56v-57h-56v57zM0 85h227v-57h-227v57zM227 198v-56h-57v56h57zM170 255v-57h-57v57h57zM170 312h57v-57h-57v57zM113 312v-57h-56v57h56zM57 198h56v-56h-56v56zM57 255v-57h-57v57h57z
" />
    <glyph glyph-name="p" unicode="p" 
d="M57 595v-56h56v56h-56zM0 482v0v170h170v-170h-113v-114h-57v114zM0 85h227v-57h-227v57zM227 198v-56h-57v56h57zM113 312v-57h-56v-113h-57v170v0v0h113zM113 255h57v-57h-57v57z" />
    <glyph glyph-name="q" unicode="q" 
d="M113 595h-56v-56h56v56zM170 368h-57v114h-113v170h170v-142v-142zM0 312h57v-57h-57v57zM0 198h113v-56h-113v56zM170 198h-57v57v0v57v0v0h57v0h57v-57h-57v-57zM0 85h227v-57h-227v57z" />
    <glyph glyph-name="r" unicode="r" 
d="M42 652h128v-57h-113v-227h-57v284h42v0zM0 85h227v-57h-227v57zM0 198v114h57v-114h-57zM170 142v0h-57v113h57v-57h57v-56h-57zM227 312v-57h-57v57h57z" />
    <glyph glyph-name="s" unicode="s" 
d="M57 652h113v-57h-113v57zM57 595v-56h-57v56h57zM57 539h56v-57h-56v57zM113 482h57v-57h-57v57zM113 425v-57h-113v57h113zM0 85h227v-57h-227v57zM113 255v57v0v0h114v-57h-57v-56v0v0h-57v0v0v-1v0v-56v0v0h-56v0h-57v56h57v57v0v0h56z" />
    <glyph glyph-name="t" unicode="t" 
d="M57 652h56v-57h57v-56h-57v-171h-56v171h-57v56h57v57zM0 85h227v-57h-227v57zM227 312v-114h-57v114h57zM57 312v-114h-57v114h57zM57 198h113v-56h-113v56z" />
    <glyph glyph-name="u" unicode="u" 
d="M0 652h57v-227h-57v227zM170 369v-1h-113v57h56v227h57v-283v0zM0 85h227v-57h-227v57zM227 142h-57v56h57v-56zM57 312h113v-57v0v-57h-57v57h-56v57zM0 255h57v-113h-57v113z" />
    <glyph glyph-name="v" unicode="v" 
d="M0 652h57v-227h-57v227zM57 425h56v-57h-56v57zM113 425v227h57v-227h-57zM0 85h227v-57h-227v57zM227 142h-57v56h57v-56zM227 312v-57h-57v57h57zM113 312v-170v0v0h-113v56h57v114h56z" />
    <glyph glyph-name="w" unicode="w" horiz-adv-x="312" 
d="M0 652h57v-227h-57v227zM57 425h56v-57h-56v57zM113 425v114h57v-114h-57zM170 425h57v-57h-57v57zM227 425v227h56v-227h-56zM0 85h340v-57h-340v57zM170 198v-56h-113v56h113zM0 255h57v-57h-57v57zM170 312h57v-114h-57v114zM57 312h170v-57h-170v57zM283 198h57v-56
h-57v56zM283 312h57v-57h-57v57z" />
    <glyph glyph-name="x" unicode="x" 
d="M0 652h57v-113h-57v113zM57 539h56v-57h-56v57zM113 539v113h57v-113h-57zM113 482h57v-114h-57v114zM57 482v-114h-57v114h57zM0 312h57v-114h-57v114zM0 85h227v-57h-227v57zM57 198h113v-56h-113v56zM113 312h57v-57h-57v57zM170 255h57v-57h-57v57z" />
    <glyph glyph-name="y" unicode="y" 
d="M113 425v57h-56v0h-57v170h57v-113h56v113h57v-113v0v-57v0v-114h-170v57h113zM0 85h227v-57h-227v57zM0 255h57v-57h-57v57zM227 142h-57v113h-57v57h57v0h57v-170zM113 198v-56h-56v56h56z" />
    <glyph glyph-name="z" unicode="z" 
d="M170 652v-113h-57v56h-113v57h113v0h57zM113 539v-57h-56v57h56zM57 425h113v-57h-113v0h-57v114h57v-57zM0 85h227v-57h-227v57zM227 142h-114v56h114v-56zM57 312h56v-114v0v0h-113v57h57v57zM227 312v-57h-57v57h57z" />
  </font>
</defs>
</svg>
